<svg xmlns="http://www.w3.org/2000/svg" fill="none" viewBox="0 0 66 65"><path fill="#fdc700" d="M45 31.2894v12.1053a.5924.5924 0 0 1-.3753.5568.5228.5228 0 0 1-.23.0484.615.615 0 0 1-.4358-.1815l-2.191-2.2395H31.079a4.237 4.237 0 0 1-4.2369-4.2368h9.0789a6.0527 6.0527 0 0 0 6.0527-6.0527v-4.0552A4.2451 4.2451 0 0 1 45 31.2894Zm-4.8421 0v-6.0526A4.237 4.237 0 0 0 35.921 21h-9.6841A4.237 4.237 0 0 0 22 25.2368v12.1053a.5918.5918 0 0 0 .3753.5568.5242.5242 0 0 0 .23.0484.6138.6138 0 0 0 .4358-.1816l2.191-2.2394H35.921a4.2366 4.2366 0 0 0 2.9959-1.241 4.2366 4.2366 0 0 0 1.241-2.9959Z"/></svg>